<svg xmlns="http://www.w3.org/2000/svg" xmlns:xlink="http://www.w3.org/1999/xlink" viewBox="0 0 1935.07 2049.82"><defs><style>.cls-1{fill:url(#linear-gradient);}.cls-2{fill:url(#linear-gradient-2);}.cls-3{fill:url(#linear-gradient-3);}.cls-4{fill:url(#linear-gradient-4);}.cls-5{fill:url(#linear-gradient-5);}.cls-6{fill:url(#linear-gradient-6);}.cls-7{fill:url(#linear-gradient-7);}.cls-8{fill:url(#linear-gradient-8);}.cls-9{fill:url(#linear-gradient-9);}.cls-10{fill:url(#linear-gradient-10);}.cls-11{fill:url(#linear-gradient-11);}.cls-12{fill:url(#linear-gradient-12);}.cls-13{fill:url(#linear-gradient-13);}.cls-14{fill:url(#linear-gradient-14);}.cls-15{fill:url(#linear-gradient-15);}.cls-16{fill:none;clip-rule:evenodd;}.cls-17{clip-path:url(#clip-path);}.cls-18{fill:url(#linear-gradient-16);}.cls-19{mask:url(#mask);}.cls-20{fill:#005b50;}.cls-20,.cls-36,.cls-60,.cls-62{fill-rule:evenodd;}.cls-21{clip-path:url(#clip-path-2);}.cls-22{fill:url(#linear-gradient-17);}.cls-23{clip-path:url(#clip-path-3);}.cls-24{fill:url(#linear-gradient-18);}.cls-25{clip-path:url(#clip-path-4);}.cls-26{fill:url(#linear-gradient-19);}.cls-27{clip-path:url(#clip-path-5);}.cls-28{fill:url(#linear-gradient-20);}.cls-29{clip-path:url(#clip-path-6);}.cls-30{fill:url(#linear-gradient-21);}.cls-31{clip-path:url(#clip-path-7);}.cls-32{fill:url(#linear-gradient-22);}.cls-33{clip-path:url(#clip-path-8);}.cls-34{fill:url(#linear-gradient-23);}.cls-35{mask:url(#mask-2);}.cls-36{fill:#5ef9f6;}.cls-37{mask:url(#mask-3);}.cls-38{mask:url(#mask-4);}.cls-39{mask:url(#mask-5);}.cls-40{mask:url(#mask-6);}.cls-41{mask:url(#mask-7);}.cls-42{clip-path:url(#clip-path-9);}.cls-43{fill:url(#linear-gradient-24);}.cls-44{clip-path:url(#clip-path-10);}.cls-45{fill:url(#linear-gradient-25);}.cls-46{clip-path:url(#clip-path-11);}.cls-47{fill:url(#linear-gradient-26);}.cls-48{clip-path:url(#clip-path-12);}.cls-49{fill:url(#linear-gradient-27);}.cls-50{clip-path:url(#clip-path-13);}.cls-51{fill:url(#linear-gradient-28);}.cls-52{clip-path:url(#clip-path-14);}.cls-53{fill:url(#linear-gradient-29);}.cls-54{clip-path:url(#clip-path-15);}.cls-55{fill:url(#linear-gradient-30);}.cls-56{clip-path:url(#clip-path-16);}.cls-57{fill:url(#linear-gradient-31);}.cls-58{clip-path:url(#clip-path-17);}.cls-59{fill:url(#linear-gradient-32);}.cls-60{fill:#003780;}.cls-61{mask:url(#mask-8);}.cls-62{fill:#fce2a6;}.cls-63{clip-path:url(#clip-path-18);}.cls-64{fill:url(#linear-gradient-33);}.cls-65{mask:url(#mask-9);}.cls-66{clip-path:url(#clip-path-19);}.cls-67{fill:url(#linear-gradient-34);}.cls-68{clip-path:url(#clip-path-20);}.cls-69{fill:url(#linear-gradient-35);}.cls-70{clip-path:url(#clip-path-21);}.cls-71{fill:url(#linear-gradient-36);}.cls-72{clip-path:url(#clip-path-22);}.cls-73{fill:url(#linear-gradient-37);}.cls-74{mask:url(#mask-10);}.cls-75{mask:url(#mask-11);}.cls-76{mask:url(#mask-12);}.cls-77{mask:url(#mask-13);}.cls-78{mask:url(#mask-14);}.cls-79{mask:url(#mask-15);}</style><linearGradient id="linear-gradient" x1="-129.07" y1="3645.49" x2="-1128" y2="3293.07" gradientTransform="translate(1567.24 -2569.39)" gradientUnits="userSpaceOnUse"><stop offset="0" stop-color="#fff"/><stop offset="1"/></linearGradient><linearGradient id="linear-gradient-2" x1="-327.03" y1="2710.89" x2="-208.4" y2="3639.64" gradientTransform="translate(1587.55 -2548.72)" xlink:href="#linear-gradient"/><linearGradient id="linear-gradient-3" x1="-527.76" y1="3016.3" x2="-1557.59" y2="3431.96" gradientTransform="translate(1474.95 -2602.8)" xlink:href="#linear-gradient"/><linearGradient id="linear-gradient-4" x1="-196.11" y1="3048.48" x2="-1491.67" y2="3571.86" gradientTransform="translate(1472.73 -2584.89)" xlink:href="#linear-gradient"/><linearGradient id="linear-gradient-5" x1="-129.36" y1="3213.66" x2="-1424.92" y2="3737.04" gradientTransform="translate(1483.75 -2557.66)" xlink:href="#linear-gradient"/><linearGradient id="linear-gradient-6" x1="-81.91" y1="3382.55" x2="-1377.47" y2="3905.93" gradientTransform="translate(1511.85 -2539.48)" xlink:href="#linear-gradient"/><linearGradient id="linear-gradient-7" x1="-61.36" y1="3509.94" x2="-1356.92" y2="4033.43" gradientTransform="translate(1544.6 -2535.16)" xlink:href="#linear-gradient"/><linearGradient id="linear-gradient-8" x1="-123.61" y1="3060.86" x2="-917.41" y2="2780.55" gradientTransform="translate(1553.82 -2615.47)" xlink:href="#linear-gradient"/><linearGradient id="linear-gradient-9" x1="46.23" y1="3264.18" x2="-952.7" y2="2911.75" gradientTransform="translate(1539 -2604.81)" xlink:href="#linear-gradient"/><linearGradient id="linear-gradient-10" x1="0.78" y1="3409.42" x2="-998.15" y2="3057" gradientTransform="translate(1530.49 -2597.09)" xlink:href="#linear-gradient"/><linearGradient id="linear-gradient-11" x1="-56.2" y1="3542.47" x2="-1055.03" y2="3190.15" gradientTransform="translate(1537.34 -2588.28)" xlink:href="#linear-gradient"/><linearGradient id="linear-gradient-12" x1="-107.98" y1="3632.51" x2="-1106.91" y2="3280.08" gradientTransform="translate(1553.78 -2577.97)" xlink:href="#linear-gradient"/><linearGradient id="linear-gradient-13" x1="12.98" y1="3077.97" x2="-21.7" y2="3669.19" gradientTransform="translate(1601.48 -2575.56)" xlink:href="#linear-gradient"/><linearGradient id="linear-gradient-14" x1="-68.45" y1="3550.76" x2="-1364.02" y2="4074.14" gradientTransform="translate(1568 -2535.47)" xlink:href="#linear-gradient"/><linearGradient id="linear-gradient-15" x1="-1002.43" y1="2831.22" x2="-74.39" y2="3646.34" gradientTransform="translate(1519.37 -2557.6)" xlink:href="#linear-gradient"/><clipPath id="clip-path"><path class="cls-16" d="M1193.29,953.93l-229.21,55.74c82.08,76.77,253.64,44.91,360.56-2.74a534.5,534.5,0,0,1-14.84-81.34Z"/></clipPath><linearGradient id="linear-gradient-16" x1="1171.09" y1="1048.92" x2="1042.16" y2="841.96" gradientUnits="userSpaceOnUse"><stop offset="0" stop-color="#008a80"/><stop offset="1" stop-color="#ebf855"/></linearGradient><mask id="mask" x="964.08" y="925.59" width="349.19" height="89.69" maskUnits="userSpaceOnUse"><rect class="cls-1" x="964.08" y="925.59" width="349.19" height="89.69"/></mask><clipPath id="clip-path-2"><path class="cls-16" d="M1115.44,869.76l-288.64,22c95.23,123.64,356.84,101.58,487.67,52.39a612.53,612.53,0,0,1-8.78-88.9Z"/></clipPath><linearGradient id="linear-gradient-17" x1="1066.71" y1="936.37" x2="691.95" y2="1034.9" xlink:href="#linear-gradient-16"/><clipPath id="clip-path-3"><path class="cls-16" d="M1025.16,740,659.05,699.18c99.3,195.82,495,217.1,647.15,169.15a726.52,726.52,0,0,1,2.15-96.84Z"/></clipPath><linearGradient id="linear-gradient-18" x1="910.86" y1="805.76" x2="540.48" y2="795.77" xlink:href="#linear-gradient-16"/><clipPath id="clip-path-4"><path class="cls-16" d="M989.73,583.75,589.14,450c68.53,259.81,563.43,378,717.82,340,1.63-25.58,4.5-50.93,8.37-75.82l-7.1-24Z"/></clipPath><linearGradient id="linear-gradient-19" x1="1004.14" y1="649.44" x2="446.07" y2="536.41" xlink:href="#linear-gradient-16"/><clipPath id="clip-path-5"><path class="cls-16" d="M1037.78,440.71,676,222.84c10.58,276.56,495.43,505,640,487.28,3.32-20.8,7.35-41.23,11.88-61.23l-2.39-35Z"/></clipPath><linearGradient id="linear-gradient-20" x1="1117.06" y1="605.56" x2="703.53" y2="137.97" xlink:href="#linear-gradient-16"/><clipPath id="clip-path-6"><path class="cls-16" d="M1121.93,343.37,827.2,77.37C787.38,334,1192.07,631.13,1329.42,641.84c7.22-31,15.66-60.74,24.69-88.92Z"/></clipPath><linearGradient id="linear-gradient-21" x1="1267.61" y1="597.51" x2="798.89" y2="31.08" xlink:href="#linear-gradient-16"/><clipPath id="clip-path-7"><path class="cls-16" d="M1227.88,281.29,1013.9,0C939.29,210.77,1222.24,523.32,1348,572.54c9.9-32.79,20.74-63.6,31.65-91.76Z"/></clipPath><linearGradient id="linear-gradient-22" x1="1245.51" y1="552.96" x2="1074.04" y2="21.51" xlink:href="#linear-gradient-16"/><clipPath id="clip-path-8"><path class="cls-16" d="M1363.29,948.59c-27.08-115.27-30.63-265.4,34.72-443.66L1171.18,206.75s21,189.27,103.24,319.78c0,0-108.81,230.08-53.33,462.39,23,96.5,74.44,193.38,173.75,274.32a390.54,390.54,0,0,0,96.61-53.55s-88.86-93.87-128.16-261.1"/></clipPath><linearGradient id="linear-gradient-23" x1="1288.77" y1="1038.93" x2="1358.34" y2="507.07" gradientUnits="userSpaceOnUse"><stop offset="0" stop-color="#00478f"/><stop offset="1" stop-color="#47eadf"/></linearGradient><mask id="mask-2" x="1171.18" y="206.75" width="320.27" height="1019.4" maskUnits="userSpaceOnUse"><rect class="cls-2" x="1171.18" y="206.75" width="320.27" height="1019.4"/></mask><mask id="mask-3" x="827.2" y="77.37" width="446.82" height="467.93" maskUnits="userSpaceOnUse"><rect class="cls-8" x="827.2" y="77.38" width="446.82" height="467.93"/></mask><mask id="mask-4" x="675.96" y="222.84" width="566.13" height="431.21" maskUnits="userSpaceOnUse"><rect class="cls-9" x="675.96" y="222.84" width="566.13" height="431.21"/></mask><mask id="mask-5" x="589.14" y="449.95" width="631.5" height="282.78" maskUnits="userSpaceOnUse"><rect class="cls-10" x="589.14" y="449.95" width="631.5" height="282.78"/></mask><mask id="mask-6" x="659.05" y="699.18" width="548.32" height="123.47" maskUnits="userSpaceOnUse"><rect class="cls-11" x="659.05" y="699.18" width="548.32" height="123.47"/></mask><mask id="mask-7" x="826.8" y="879.45" width="382.47" height="48.34" maskUnits="userSpaceOnUse"><rect class="cls-12" x="826.8" y="879.45" width="382.47" height="48.33"/></mask><clipPath id="clip-path-9"><path class="cls-16" d="M838.14,1909.1c175.75-15.86,305.31-331.54,289.82-423.89-14.38.21-28.5,0-42.27-.58Z"/></clipPath><linearGradient id="linear-gradient-24" x1="804.93" y1="1912.92" x2="971.3" y2="1719.52" gradientUnits="userSpaceOnUse"><stop offset="0" stop-color="#ffce4b"/><stop offset="1" stop-color="#f856bf"/></linearGradient><clipPath id="clip-path-10"><path class="cls-16" d="M1000.93,1720.73l-68.86,298.58c188-69.39,236.65-453.83,192.35-550.49q-17.58,5-34.84,9.14l-54,92.64Z"/></clipPath><linearGradient id="linear-gradient-25" x1="912.03" y1="1936.83" x2="1064.33" y2="1724.66" xlink:href="#linear-gradient-24"/><clipPath id="clip-path-11"><path class="cls-16" d="M1057,1734.71l6.85,315.11c169.9-116.72,121.19-512.33,52.58-597.51q-8.88,5.16-17.74,10L1052.8,1541Z"/></clipPath><linearGradient id="linear-gradient-26" x1="1012.34" y1="1893.18" x2="1149.84" y2="1743.94" xlink:href="#linear-gradient-24"/><clipPath id="clip-path-12"><path class="cls-16" d="M1121.5,1709.31l73.18,286.6c130.53-142.79,2-494.09-78.84-557.38q-3.55,3.35-7.12,6.61l-38,65.21Z"/></clipPath><linearGradient id="linear-gradient-27" x1="1142.19" y1="1850.18" x2="1206.15" y2="1697.68" xlink:href="#linear-gradient-24"/><clipPath id="clip-path-13"><path class="cls-16" d="M1152.67,1651.12l112.74,223.5c81.83-141.8-88.48-408.68-166.8-446.24l-1.38,2c7,8.48,11.49,14.75,11.49,14.75l-32.15,55.13Z"/></clipPath><linearGradient id="linear-gradient-28" x1="1228.86" y1="1766.45" x2="1202.65" y2="1588.76" xlink:href="#linear-gradient-24"/><clipPath id="clip-path-14"><path class="cls-16" d="M796.74,1041.21,399.05,1320.45c269.14,107,679.1-217.36,787.7-397.58a957.29,957.29,0,0,1-82.4-97.65Z"/></clipPath><linearGradient id="linear-gradient-29" x1="723.18" y1="1184.59" x2="348.11" y2="1498.05" xlink:href="#linear-gradient-16"/><clipPath id="clip-path-15"><path class="cls-16" d="M548,734.24,0,834.57c251.86,264.3,930.79,67,1058.29-76.68-14.85-23.46-28.7-47.19-41.69-70.93l-32.88-32.49Z"/></clipPath><linearGradient id="linear-gradient-30" x1="760.7" y1="905.43" x2="-56.36" y2="803.94" xlink:href="#linear-gradient-16"/><clipPath id="clip-path-16"><path class="cls-16" d="M546.29,564.51,22.62,558.68C207.19,847.21,866.83,787.9,1012,678.61c-19.87-36.93-37.53-73.75-53.19-109.5Z"/></clipPath><linearGradient id="linear-gradient-31" x1="900.43" y1="763.36" x2="-57.59" y2="612.29" xlink:href="#linear-gradient-16"/><clipPath id="clip-path-17"><path class="cls-16" d="M1667.93,1098.8s153.46-16.15,253.62,92.08c0,0-14.54-93.69-53.31-121.15,66.83-174-135.93-315.2-320.21-284.8-294.45,48.57-535.83,707.55-515,950.34,197.89-183.11,564.88-294,634.87-636.47"/></clipPath><linearGradient id="linear-gradient-32" x1="1461.18" y1="1585.34" x2="1490.25" y2="790.52" gradientUnits="userSpaceOnUse"><stop offset="0" stop-color="#003780"/><stop offset="1" stop-color="#d820d2"/></linearGradient><mask id="mask-8" x="1313.27" y="780.79" width="559.64" height="171.64" maskUnits="userSpaceOnUse"><rect class="cls-13" x="1313.27" y="780.79" width="559.64" height="171.64"/></mask><clipPath id="clip-path-18"><path class="cls-16" d="M1149.79,1106.1l-178,255.19c148.19,4.29,290.06-177,354.23-317.43a702.88,702.88,0,0,1-85.69-67.48Z"/></clipPath><linearGradient id="linear-gradient-33" x1="1219.05" y1="1191.96" x2="910.89" y2="1099.85" xlink:href="#linear-gradient-16"/><mask id="mask-9" x="971.75" y="976.38" width="295.39" height="384.92" maskUnits="userSpaceOnUse"><rect class="cls-14" x="971.75" y="976.38" width="295.39" height="384.92"/></mask><clipPath id="clip-path-19"><path class="cls-16" d="M999.34,1090.8,733.07,1364.51c202.11,39.16,441.59-211,528-373.85a806.28,806.28,0,0,1-86.28-80.27Z"/></clipPath><linearGradient id="linear-gradient-34" x1="981.39" y1="1180.44" x2="696.7" y2="1604.98" xlink:href="#linear-gradient-16"/><clipPath id="clip-path-20"><path class="cls-16" d="M625.36,917.65,112.37,1135c294.55,197.15,887.15-118,1006.7-290.3-20.72-26.72-40-54.29-57.9-82.29l-28-17.52Z"/></clipPath><linearGradient id="linear-gradient-35" x1="706.27" y1="986.25" x2="55.69" y2="1361.53" xlink:href="#linear-gradient-16"/><clipPath id="clip-path-21"><path class="cls-16" d="M596.89,410.63,139.74,319.2C249.91,592.79,802.57,654.94,969.9,593.85c-18.83-41.06-35-81-48.8-118.38Z"/></clipPath><linearGradient id="linear-gradient-36" x1="851.78" y1="663.34" x2="218.34" y2="287.34" xlink:href="#linear-gradient-16"/><clipPath id="clip-path-22"><path class="cls-16" d="M1313.27,952.43c-127.4-90.37-261.94-235.76-352.91-469.1L475.74,386.4S661.72,555.27,857,612.56c0,0,93.2,322.53,350.85,503.88,107,75.32,242.42,126.29,411.29,119.66a515.46,515.46,0,0,0,48.81-137.3s-169.83-15.28-354.66-146.37"/></clipPath><linearGradient id="linear-gradient-37" x1="1284.27" y1="1129.82" x2="888.9" y2="543.09" xlink:href="#linear-gradient-23"/><mask id="mask-10" x="475.74" y="386.4" width="1192.19" height="749.21" maskUnits="userSpaceOnUse"><rect class="cls-15" x="475.74" y="386.4" width="1192.19" height="749.21"/></mask><mask id="mask-11" x="22.62" y="558.68" width="842.77" height="115.82" maskUnits="userSpaceOnUse"><rect class="cls-3" x="22.62" y="558.68" width="842.77" height="115.82"/></mask><mask id="mask-12" x="0" y="727.58" width="925.33" height="129.68" maskUnits="userSpaceOnUse"><rect class="cls-4" y="727.58" width="925.33" height="129.68"/></mask><mask id="mask-13" x="112.37" y="830.84" width="865.61" height="304.13" maskUnits="userSpaceOnUse"><rect class="cls-5" x="112.37" y="830.84" width="865.61" height="304.13"/></mask><mask id="mask-14" x="399.05" y="937.71" width="645.83" height="382.74" maskUnits="userSpaceOnUse"><rect class="cls-6" x="399.05" y="937.71" width="645.83" height="382.74"/></mask><mask id="mask-15" x="733.07" y="1028.11" width="403.86" height="336.4" maskUnits="userSpaceOnUse"><rect class="cls-7" x="733.07" y="1028.11" width="403.86" height="336.4"/></mask></defs><g id="Camada_2" data-name="Camada 2"><g id="Layer_1" data-name="Layer 1"><g class="cls-17"><rect class="cls-18" x="964.08" y="925.59" width="360.57" height="160.85"/></g><g class="cls-19"><path class="cls-20" d="M1193.29,953.93l-229.21,55.74s195.44,32.08,349.19-57.25q-2.07-13.38-3.47-26.83Z"/></g><g class="cls-21"><rect class="cls-22" x="826.8" y="855.26" width="487.67" height="160.15"/></g><g class="cls-23"><rect class="cls-24" x="659.05" y="699.18" width="649.3" height="217.11"/></g><g class="cls-25"><rect class="cls-26" x="589.14" y="449.95" width="726.19" height="377.95"/></g><g class="cls-27"><rect class="cls-28" x="675.96" y="222.84" width="651.86" height="505"/></g><g class="cls-29"><rect class="cls-30" x="787.38" y="77.37" width="566.73" height="564.47"/></g><g class="cls-31"><rect class="cls-32" x="939.29" width="440.35" height="572.54"/></g><g class="cls-33"><rect class="cls-34" x="1165.61" y="206.75" width="325.84" height="1056.5"/></g><g class="cls-35"><path class="cls-36" d="M1363.29,948.59c-27.08-115.27-30.63-265.4,34.72-443.66L1171.18,206.75s109.63,165.31,191.88,295.82c0,0-108.81,230.08-53.33,462.4,21.81,91.33,69,183,158.21,261.18q11.85-7.68,23.51-16.46s-88.86-93.87-128.16-261.1"/></g><g class="cls-37"><path class="cls-20" d="M827.2,77.37s130.86,312,439.15,467.94c3.9-9.62,6.68-15.77,7.67-17.92-65.09-50.49-141.39-132.86-196.66-224.24Z"/></g><g class="cls-38"><path class="cls-20" d="M1242.09,614.28c-88.18-41.36-203.54-125-290.67-225.57L676,222.84s274.79,322.45,555,431.21c3.61-14.22,7.37-27.52,11.09-39.77"/></g><g class="cls-39"><path class="cls-20" d="M589.14,450s307.12,233,625.63,282.78c1.78-11.3,3.76-22.3,5.87-33-85.43-21.1-198.27-70.55-299.09-138.79Z"/></g><g class="cls-40"><path class="cls-20" d="M659.05,699.18S862.73,846.33,1206,819.34q.51-11.73,1.38-23.24c-86.3-4.45-199.26-28-305.45-69.87Z"/></g><g class="cls-41"><path class="cls-20" d="M826.8,891.77s192.77,54.65,382.47,29.3q-1.95-17.33-2.91-34.45c-64.46,5.94-141.57,4.42-217.93-7.17Z"/></g><g class="cls-42"><rect class="cls-43" x="838.14" y="1484.63" width="305.31" height="424.47"/></g><g class="cls-44"><rect class="cls-45" x="932.07" y="1468.82" width="236.64" height="550.49"/></g><g class="cls-46"><rect class="cls-47" x="1052.8" y="1452.31" width="180.95" height="597.51"/></g><g class="cls-48"><rect class="cls-49" x="1070.69" y="1438.53" width="254.51" height="557.39"/></g><g class="cls-50"><rect class="cls-51" x="1076.57" y="1428.38" width="270.67" height="446.24"/></g><g class="cls-52"><rect class="cls-53" x="399.05" y="825.22" width="787.7" height="602.23"/></g><g class="cls-54"><rect class="cls-55" y="654.47" width="1058.29" height="444.4"/></g><g class="cls-56"><rect class="cls-57" x="22.62" y="558.68" width="989.41" height="288.53"/></g><g class="cls-58"><rect class="cls-59" x="1012.2" y="754.53" width="922.87" height="980.74"/></g><path class="cls-60" d="M1074,1451c86.16-181.13,327.92-213.12,458.63-216.65-102.67-8.29-191.45-38.65-267.74-81.81q-28.2-16-54.15-34.09l-2.92-2q-8.19,15.29-16.06,30.88a1675.07,1675.07,0,0,0-70.47,160.47c-18.34,48.36-34.22,96.66-47.29,143.25"/><g class="cls-61"><path class="cls-62" d="M1313.27,952.43s286.06-180.11,559.64-3.07C1836.46,836.65,1687,762,1548,784.93c-84.22,13.89-164.11,77.73-234.76,167.5"/></g><g class="cls-63"><rect class="cls-64" x="971.75" y="976.38" width="354.22" height="389.2"/></g><g class="cls-65"><path class="cls-20" d="M1149.79,1106.1l-178,255.19s221.3-138.86,295.4-361.41q-13.74-11.45-26.86-23.5Z"/></g><g class="cls-66"><rect class="cls-67" x="733.07" y="910.39" width="528.05" height="493.28"/></g><g class="cls-68"><rect class="cls-69" x="112.37" y="744.86" width="1006.7" height="587.26"/></g><g class="cls-70"><rect class="cls-71" x="139.74" y="319.2" width="830.16" height="335.74"/></g><g class="cls-72"><rect class="cls-73" x="475.74" y="386.4" width="1192.19" height="856.33"/></g><g class="cls-74"><path class="cls-36" d="M1313.27,952.43c-127.4-90.37-261.94-235.76-352.91-469.1L475.74,386.4s252.73,67.81,448,125.1c0,0,93.2,322.54,350.85,503.88,101.29,71.29,228,120.75,384.45,120.22q5-17.94,8.89-36.8s-169.83-15.28-354.66-146.37"/></g><g class="cls-75"><path class="cls-20" d="M22.62,558.68s401.78,194.4,842.76,79.5c-4.52-12.92-7.15-21.43-8-24.42-108.45,6.88-255.8-8-390.23-50.13Z"/></g><g class="cls-76"><path class="cls-20" d="M901.6,727.58c-123.32,36.06-310.45,54-484.38,30.6L0,834.57s553.23,79.06,925.33-58c-8.83-17.22-16.72-33.66-23.73-49"/></g><g class="cls-77"><path class="cls-20" d="M112.37,1135S619.46,1097.3,978,868.57q-12.16-19.1-23-37.73c-102.91,53.71-257.68,103.29-417,123.8Z"/></g><g class="cls-78"><path class="cls-20" d="M399.05,1320.45s329.89-32.24,645.83-358.55q-9.75-12.06-18.92-24.19c-89.24,70.92-221.48,146.27-363.09,197.5Z"/></g><g class="cls-79"><path class="cls-20" d="M733.07,1364.51s238.35-114.21,403.85-304.86q-17.07-15.44-32.94-31.54c-58.58,62.15-136.17,128-221.81,183.13Z"/></g></g></g></svg>